{
  "accessors": [
    {
      "bufferView": 2,
      "componentType": 5126,
      "count": 65532,
      "max": [
        63.35477828979492,
        62.1255989074707,
        -33.28984069824219
      ],
      "min": [
        -63.35477828979492,
        -62.10419845581055,
        -72.75232696533203
      ],
      "type": "VEC3"
    },
    {
      "bufferView": 2,
      "byteOffset": 786384,
      "componentType": 5126,
      "count": 65532,
      "max": [
        0.9997968673706055,
        0.9999504685401917,
        0.999924898147583
      ],
      "min": [
        -0.9999829530715942,
        -0.999974250793457,
        -0.9997891783714294
      ],
      "type": "VEC3"
    },
    {
      "bufferView": 1,
      "componentType": 5126,
      "count": 65532,
      "max": [
        0.9967399835586548,
        0.9960899949073792
      ],
      "min": [
        0.019200000911951065,
        0.507319986820221
      ],
      "type": "VEC2"
    },
    {
      "bufferView": 0,
      "componentType": 5125,
      "count": 344613,
      "type": "SCALAR"
    },
    {
      "bufferView": 2,
      "byteOffset": 1572768,
      "componentType": 5126,
      "count": 65532,
      "max": [
        63.35477828979492,
        62.1255989074707,
        -52.47373962402344
      ],
      "min": [
        -63.35477828979492,
        -62.1255989074707,
        -73.9616470336914
      ],
      "type": "VEC3"
    },
    {
      "bufferView": 2,
      "byteOffset": 2359152,
      "componentType": 5126,
      "count": 65532,
      "max": [
        0.9999998807907104,
        0.9999831318855286,
        0.9999792575836182
      ],
      "min": [
        -0.9999877214431763,
        -0.999974250793457,
        -1.0
      ],
      "type": "VEC3"
    },
    {
      "bufferView": 1,
      "byteOffset": 524256,
      "componentType": 5126,
      "count": 65532,
      "max": [
        0.9968500137329102,
        0.9966400265693665
      ],
      "min": [
        0.003490000031888485,
        0.46757999062538147
      ],
      "type": "VEC2"
    },
    {
      "bufferView": 0,
      "byteOffset": 1378452,
      "componentType": 5125,
      "count": 326706,
      "type": "SCALAR"
    },
    {
      "bufferView": 2,
      "byteOffset": 3145536,
      "componentType": 5126,
      "count": 11164,
      "max": [
        63.2236213684082,
        61.717979431152344,
        -59.62749099731445
      ],
      "min": [
        -63.03092956542969,
        -61.768760681152344,
        -68.71674346923828
      ],
      "type": "VEC3"
    },
    {
      "bufferView": 2,
      "byteOffset": 3279504,
      "componentType": 5126,
      "count": 11164,
      "max": [
        0.9999438524246216,
        0.9997676610946655,
        0.9994075894355774
      ],
      "min": [
        -0.9990451335906982,
        -0.9996728897094727,
        -0.9998273849487305
      ],
      "type": "VEC3"
    },
    {
      "bufferView": 1,
      "byteOffset": 1048512,
      "componentType": 5126,
      "count": 11164,
      "max": [
        0.9967399835586548,
        0.9941700100898743
      ],
      "min": [
        0.0036100000143051147,
        0.47363999485969543
      ],
      "type": "VEC2"
    },
    {
      "bufferView": 0,
      "byteOffset": 2685276,
      "componentType": 5125,
      "count": 33897,
      "type": "SCALAR"
    }
  ],
  "asset": {
    "extras": {
      "author": "Ronen (https://sketchfab.com/ronenh)",
      "license": "CC-BY-ND-4.0 (http://creativecommons.org/licenses/by-nd/4.0/)",
      "source": "https://sketchfab.com/3d-models/almond-croissant-e3717d52b9704815910f889f5b61fbd0",
      "title": "Almond Croissant"
    },
    "generator": "Sketchfab-12.65.0",
    "version": "2.0"
  },
  "bufferViews": [
    {
      "buffer": 0,
      "byteLength": 2820864,
      "name": "floatBufferViews",
      "target": 34963
    },
    {
      "buffer": 0,
      "byteLength": 1137824,
      "byteOffset": 2820864,
      "byteStride": 8,
      "name": "floatBufferViews",
      "target": 34962
    },
    {
      "buffer": 0,
      "byteLength": 3413472,
      "byteOffset": 3958688,
      "byteStride": 12,
      "name": "floatBufferViews",
      "target": 34962
    }
  ],
  "buffers": [
    {
      "byteLength": 7372160,
      "uri": "scene.bin"
    }
  ],
  "extensionsUsed": [
    "KHR_materials_unlit"
  ],
  "images": [
    {
      "uri": "textures/material0_baseColor.jpeg"
    }
  ],
  "materials": [
    {
      "doubleSided": true,
      "emissiveTexture": {
        "index": 0
      },
      "extensions": {
        "KHR_materials_unlit": {}
      },
      "name": "material0",
      "pbrMetallicRoughness": {
        "baseColorTexture": {
          "index": 0
        },
        "metallicFactor": 0.0
      }
    }
  ],
  "meshes": [
    {
      "name": "Object_0",
      "primitives": [
        {
          "attributes": {
            "NORMAL": 1,
            "POSITION": 0,
            "TEXCOORD_0": 2
          },
          "indices": 3,
          "material": 0,
          "mode": 4
        }
      ]
    },
    {
      "name": "Object_1",
      "primitives": [
        {
          "attributes": {
            "NORMAL": 5,
            "POSITION": 4,
            "TEXCOORD_0": 6
          },
          "indices": 7,
          "material": 0,
          "mode": 4
        }
      ]
    },
    {
      "name": "Object_2",
      "primitives": [
        {
          "attributes": {
            "NORMAL": 9,
            "POSITION": 8,
            "TEXCOORD_0": 10
          },
          "indices": 11,
          "material": 0,
          "mode": 4
        }
      ]
    }
  ],
  "nodes": [
    {
      "children": [
        1
      ],
      "matrix": [
        1.0,
        0.0,
        0.0,
        0.0,
        0.0,
        2.220446049250313e-16,
        -1.0,
        0.0,
        0.0,
        1.0,
        2.220446049250313e-16,
        0.0,
        0.0,
        0.0,
        0.0,
        1.0
      ],
      "name": "Sketchfab_model"
    },
    {
      "children": [
        2,
        3,
        4
      ],
      "name": "model_Almond Croissant_20191205_170755800.obj.cleaner.materialmerger.gles"
    },
    {
      "mesh": 0,
      "name": "Object_2"
    },
    {
      "mesh": 1,
      "name": "Object_3"
    },
    {
      "mesh": 2,
      "name": "Object_4"
    }
  ],
  "samplers": [
    {
      "magFilter": 9729,
      "minFilter": 9987,
      "wrapS": 10497,
      "wrapT": 10497
    }
  ],
  "scene": 0,
  "scenes": [
    {
      "name": "Sketchfab_Scene",
      "nodes": [
        0
      ]
    }
  ],
  "textures": [
    {
      "sampler": 0,
      "source": 0
    }
  ]
}
